<mxfile host="65bd71144e">
    <diagram id="C5RBs43oDa-KdzZeNtuy" name="Page-1">
        <mxGraphModel dx="750" dy="1740" grid="1" gridSize="10" guides="1" tooltips="1" connect="1" arrows="1" fold="1" page="1" pageScale="1" pageWidth="827" pageHeight="1169" math="0" shadow="0">
            <root>
                <mxCell id="WIyWlLk6GJQsqaUBKTNV-0"/>
                <mxCell id="WIyWlLk6GJQsqaUBKTNV-1" parent="WIyWlLk6GJQsqaUBKTNV-0"/>
                <mxCell id="hW5n2ouBTmK9XzmkuQqM-54" value="" style="endArrow=none;dashed=1;html=1;rounded=0;" parent="WIyWlLk6GJQsqaUBKTNV-1" edge="1">
                    <mxGeometry width="50" height="50" relative="1" as="geometry">
                        <mxPoint x="440" y="-10" as="sourcePoint"/>
                        <mxPoint x="440" y="-360" as="targetPoint"/>
                    </mxGeometry>
                </mxCell>
                <mxCell id="hW5n2ouBTmK9XzmkuQqM-55" value="" style="endArrow=none;dashed=1;html=1;rounded=0;" parent="WIyWlLk6GJQsqaUBKTNV-1" edge="1">
                    <mxGeometry width="50" height="50" relative="1" as="geometry">
                        <mxPoint x="160" y="-280" as="sourcePoint"/>
                        <mxPoint x="720" y="-280" as="targetPoint"/>
                    </mxGeometry>
                </mxCell>
                <mxCell id="hW5n2ouBTmK9XzmkuQqM-56" value="Gaz system" style="text;html=1;strokeColor=none;fillColor=none;align=center;verticalAlign=middle;whiteSpace=wrap;rounded=0;" parent="WIyWlLk6GJQsqaUBKTNV-1" vertex="1">
                    <mxGeometry x="250" y="-340" width="110" height="40" as="geometry"/>
                </mxCell>
                <mxCell id="hW5n2ouBTmK9XzmkuQqM-57" value="Electric system" style="text;html=1;strokeColor=none;fillColor=none;align=center;verticalAlign=middle;whiteSpace=wrap;rounded=0;" parent="WIyWlLk6GJQsqaUBKTNV-1" vertex="1">
                    <mxGeometry x="515" y="-340" width="110" height="40" as="geometry"/>
                </mxCell>
                <mxCell id="hW5n2ouBTmK9XzmkuQqM-58" value="G" style="ellipse;whiteSpace=wrap;html=1;aspect=fixed;" parent="WIyWlLk6GJQsqaUBKTNV-1" vertex="1">
                    <mxGeometry x="265" y="-210" width="80" height="80" as="geometry"/>
                </mxCell>
                <mxCell id="hW5n2ouBTmK9XzmkuQqM-59" value="E" style="ellipse;whiteSpace=wrap;html=1;aspect=fixed;" parent="WIyWlLk6GJQsqaUBKTNV-1" vertex="1">
                    <mxGeometry x="530" y="-210" width="80" height="80" as="geometry"/>
                </mxCell>
                <mxCell id="hW5n2ouBTmK9XzmkuQqM-60" value="" style="endArrow=classic;html=1;rounded=0;entryX=0;entryY=1;entryDx=0;entryDy=0;exitX=1;exitY=0.5;exitDx=0;exitDy=0;" parent="WIyWlLk6GJQsqaUBKTNV-1" source="hW5n2ouBTmK9XzmkuQqM-64" target="hW5n2ouBTmK9XzmkuQqM-58" edge="1">
                    <mxGeometry width="50" height="50" relative="1" as="geometry">
                        <mxPoint x="230" y="-90" as="sourcePoint"/>
                        <mxPoint x="440" y="-90" as="targetPoint"/>
                    </mxGeometry>
                </mxCell>
                <mxCell id="hW5n2ouBTmK9XzmkuQqM-61" value="" style="endArrow=classic;html=1;rounded=0;exitX=0;exitY=0;exitDx=0;exitDy=0;entryX=1;entryY=0.5;entryDx=0;entryDy=0;" parent="WIyWlLk6GJQsqaUBKTNV-1" source="hW5n2ouBTmK9XzmkuQqM-58" target="hW5n2ouBTmK9XzmkuQqM-67" edge="1">
                    <mxGeometry width="50" height="50" relative="1" as="geometry">
                        <mxPoint x="240" y="-80" as="sourcePoint"/>
                        <mxPoint x="210" y="-230" as="targetPoint"/>
                    </mxGeometry>
                </mxCell>
                <mxCell id="hW5n2ouBTmK9XzmkuQqM-62" value="" style="endArrow=classic;html=1;rounded=0;exitX=1;exitY=0;exitDx=0;exitDy=0;entryX=0;entryY=0.5;entryDx=0;entryDy=0;" parent="WIyWlLk6GJQsqaUBKTNV-1" source="hW5n2ouBTmK9XzmkuQqM-59" target="hW5n2ouBTmK9XzmkuQqM-66" edge="1">
                    <mxGeometry width="50" height="50" relative="1" as="geometry">
                        <mxPoint x="707" y="-228" as="sourcePoint"/>
                        <mxPoint x="650" y="-240" as="targetPoint"/>
                    </mxGeometry>
                </mxCell>
                <mxCell id="hW5n2ouBTmK9XzmkuQqM-63" value="" style="endArrow=classic;html=1;rounded=0;entryX=1;entryY=1;entryDx=0;entryDy=0;exitX=0;exitY=0.5;exitDx=0;exitDy=0;" parent="WIyWlLk6GJQsqaUBKTNV-1" source="hW5n2ouBTmK9XzmkuQqM-65" target="hW5n2ouBTmK9XzmkuQqM-59" edge="1">
                    <mxGeometry width="50" height="50" relative="1" as="geometry">
                        <mxPoint x="650" y="-90" as="sourcePoint"/>
                        <mxPoint x="600" y="-110" as="targetPoint"/>
                    </mxGeometry>
                </mxCell>
                <mxCell id="hW5n2ouBTmK9XzmkuQqM-64" value="Gaz production" style="rounded=1;whiteSpace=wrap;html=1;" parent="WIyWlLk6GJQsqaUBKTNV-1" vertex="1">
                    <mxGeometry x="140" y="-110" width="90" height="30" as="geometry"/>
                </mxCell>
                <mxCell id="hW5n2ouBTmK9XzmkuQqM-65" value="Elec production" style="rounded=1;whiteSpace=wrap;html=1;" parent="WIyWlLk6GJQsqaUBKTNV-1" vertex="1">
                    <mxGeometry x="660" y="-110" width="90" height="30" as="geometry"/>
                </mxCell>
                <mxCell id="hW5n2ouBTmK9XzmkuQqM-66" value="Elec demand" style="rounded=1;whiteSpace=wrap;html=1;" parent="WIyWlLk6GJQsqaUBKTNV-1" vertex="1">
                    <mxGeometry x="660" y="-260" width="90" height="30" as="geometry"/>
                </mxCell>
                <mxCell id="hW5n2ouBTmK9XzmkuQqM-67" value="Gaz demand" style="rounded=1;whiteSpace=wrap;html=1;" parent="WIyWlLk6GJQsqaUBKTNV-1" vertex="1">
                    <mxGeometry x="140" y="-250" width="90" height="30" as="geometry"/>
                </mxCell>
                <mxCell id="hW5n2ouBTmK9XzmkuQqM-70" value="" style="endArrow=classic;html=1;rounded=0;exitX=0;exitY=0.5;exitDx=0;exitDy=0;entryX=1;entryY=0.5;entryDx=0;entryDy=0;" parent="WIyWlLk6GJQsqaUBKTNV-1" source="hW5n2ouBTmK9XzmkuQqM-59" target="hW5n2ouBTmK9XzmkuQqM-58" edge="1">
                    <mxGeometry relative="1" as="geometry">
                        <mxPoint x="360" y="-70" as="sourcePoint"/>
                        <mxPoint x="460" y="-70" as="targetPoint"/>
                    </mxGeometry>
                </mxCell>
                <mxCell id="hW5n2ouBTmK9XzmkuQqM-71" value="Label" style="edgeLabel;resizable=0;html=1;align=center;verticalAlign=middle;" parent="hW5n2ouBTmK9XzmkuQqM-70" connectable="0" vertex="1">
                    <mxGeometry relative="1" as="geometry"/>
                </mxCell>
                <mxCell id="hW5n2ouBTmK9XzmkuQqM-72" value="&lt;font style=&quot;font-size: 12px;&quot;&gt;Electrolyser&lt;/font&gt;" style="edgeLabel;html=1;align=center;verticalAlign=middle;resizable=0;points=[];" parent="hW5n2ouBTmK9XzmkuQqM-70" vertex="1" connectable="0">
                    <mxGeometry x="-0.024" y="-2" relative="1" as="geometry">
                        <mxPoint as="offset"/>
                    </mxGeometry>
                </mxCell>
                <mxCell id="hW5n2ouBTmK9XzmkuQqM-78" value="" style="endArrow=none;dashed=1;html=1;rounded=0;" parent="WIyWlLk6GJQsqaUBKTNV-1" edge="1">
                    <mxGeometry width="50" height="50" relative="1" as="geometry">
                        <mxPoint x="10" as="sourcePoint"/>
                        <mxPoint x="800" as="targetPoint"/>
                    </mxGeometry>
                </mxCell>
                <mxCell id="hW5n2ouBTmK9XzmkuQqM-81" value="&lt;h1&gt;Physical system&lt;br&gt;&lt;/h1&gt;" style="text;html=1;strokeColor=none;fillColor=none;spacing=5;spacingTop=-20;whiteSpace=wrap;overflow=hidden;rounded=0;" parent="WIyWlLk6GJQsqaUBKTNV-1" vertex="1">
                    <mxGeometry x="310" y="-440" width="250" height="40" as="geometry"/>
                </mxCell>
                <mxCell id="0" value="" style="group" parent="WIyWlLk6GJQsqaUBKTNV-1" vertex="1" connectable="0">
                    <mxGeometry x="890" y="-440" width="710" height="460" as="geometry"/>
                </mxCell>
                <mxCell id="hW5n2ouBTmK9XzmkuQqM-79" value="&lt;h1&gt;Ports and models&lt;br&gt;&lt;/h1&gt;" style="text;html=1;strokeColor=none;fillColor=none;spacing=5;spacingTop=-20;whiteSpace=wrap;overflow=hidden;rounded=0;" parent="0" vertex="1">
                    <mxGeometry x="230" width="250" height="40" as="geometry"/>
                </mxCell>
                <mxCell id="92" value="Flow : PortType" style="swimlane;fontStyle=0;childLayout=stackLayout;horizontal=1;startSize=30;horizontalStack=0;resizeParent=1;resizeParentMax=0;resizeLast=0;collapsible=1;marginBottom=0;whiteSpace=wrap;html=1;fillColor=#FFCC99;" parent="0" vertex="1">
                    <mxGeometry x="50" y="60" width="140" height="60" as="geometry"/>
                </mxCell>
                <mxCell id="93" value="f : PortVariable" style="text;strokeColor=none;fillColor=none;align=left;verticalAlign=middle;spacingLeft=4;spacingRight=4;overflow=hidden;points=[[0,0.5],[1,0.5]];portConstraint=eastwest;rotatable=0;whiteSpace=wrap;html=1;" parent="92" vertex="1">
                    <mxGeometry y="30" width="140" height="30" as="geometry"/>
                </mxCell>
                <mxCell id="94" value="Node : Model" style="swimlane;fontStyle=0;childLayout=stackLayout;horizontal=1;startSize=30;horizontalStack=0;resizeParent=1;resizeParentMax=0;resizeLast=0;collapsible=1;marginBottom=0;whiteSpace=wrap;html=1;fillColor=#CCFFCC;fontColor=#000000;" parent="0" vertex="1">
                    <mxGeometry x="20" y="170" width="210" height="120" as="geometry"/>
                </mxCell>
                <mxCell id="95" value="spillage, ens : Variable" style="text;strokeColor=none;fillColor=none;align=left;verticalAlign=middle;spacingLeft=4;spacingRight=4;overflow=hidden;points=[[0,0.5],[1,0.5]];portConstraint=eastwest;rotatable=0;whiteSpace=wrap;html=1;" parent="94" vertex="1">
                    <mxGeometry y="30" width="210" height="30" as="geometry"/>
                </mxCell>
                <mxCell id="96" value="flow_n : Flow" style="text;strokeColor=none;fillColor=none;align=left;verticalAlign=middle;spacingLeft=4;spacingRight=4;overflow=hidden;points=[[0,0.5],[1,0.5]];portConstraint=eastwest;rotatable=0;whiteSpace=wrap;html=1;" parent="94" vertex="1">
                    <mxGeometry y="60" width="210" height="30" as="geometry"/>
                </mxCell>
                <mxCell id="97" value="flow_n.f..sum() = spillage - ens" style="text;strokeColor=none;fillColor=none;align=left;verticalAlign=middle;spacingLeft=4;spacingRight=4;overflow=hidden;points=[[0,0.5],[1,0.5]];portConstraint=eastwest;rotatable=0;whiteSpace=wrap;html=1;" parent="94" vertex="1">
                    <mxGeometry y="90" width="210" height="30" as="geometry"/>
                </mxCell>
                <mxCell id="107" value="&lt;font color=&quot;#000000&quot;&gt;Converter : Model&lt;/font&gt;" style="swimlane;fontStyle=0;childLayout=stackLayout;horizontal=1;startSize=30;horizontalStack=0;resizeParent=1;resizeParentMax=0;resizeLast=0;collapsible=1;marginBottom=0;whiteSpace=wrap;html=1;fillColor=#CCFFCC;" parent="0" vertex="1">
                    <mxGeometry x="490" y="-30" width="220" height="240" as="geometry"/>
                </mxCell>
                <mxCell id="108" value="p : Variable" style="text;strokeColor=none;fillColor=none;align=left;verticalAlign=middle;spacingLeft=4;spacingRight=4;overflow=hidden;points=[[0,0.5],[1,0.5]];portConstraint=eastwest;rotatable=0;whiteSpace=wrap;html=1;" parent="107" vertex="1">
                    <mxGeometry y="30" width="220" height="30" as="geometry"/>
                </mxCell>
                <mxCell id="109" value="p_min, p_max, alpha, c : Parameter" style="text;strokeColor=none;fillColor=none;align=left;verticalAlign=middle;spacingLeft=4;spacingRight=4;overflow=hidden;points=[[0,0.5],[1,0.5]];portConstraint=eastwest;rotatable=0;whiteSpace=wrap;html=1;" parent="107" vertex="1">
                    <mxGeometry y="60" width="220" height="30" as="geometry"/>
                </mxCell>
                <mxCell id="130" value="p_max&amp;gt;=p &amp;gt;= p_min" style="text;strokeColor=none;fillColor=none;align=left;verticalAlign=middle;spacingLeft=4;spacingRight=4;overflow=hidden;points=[[0,0.5],[1,0.5]];portConstraint=eastwest;rotatable=0;whiteSpace=wrap;html=1;" vertex="1" parent="107">
                    <mxGeometry y="90" width="220" height="30" as="geometry"/>
                </mxCell>
                <mxCell id="110" value="c (p_max-p)" style="text;strokeColor=none;fillColor=none;align=left;verticalAlign=middle;spacingLeft=4;spacingRight=4;overflow=hidden;points=[[0,0.5],[1,0.5]];portConstraint=eastwest;rotatable=0;whiteSpace=wrap;html=1;" parent="107" vertex="1">
                    <mxGeometry y="120" width="220" height="30" as="geometry"/>
                </mxCell>
                <mxCell id="111" value="" style="endArrow=none;dashed=1;html=1;rounded=0;exitX=0;exitY=0.5;exitDx=0;exitDy=0;entryX=1;entryY=0.5;entryDx=0;entryDy=0;" parent="107" edge="1">
                    <mxGeometry width="50" height="50" relative="1" as="geometry">
                        <mxPoint x="10" y="150" as="sourcePoint"/>
                        <mxPoint x="210" y="150" as="targetPoint"/>
                    </mxGeometry>
                </mxCell>
                <mxCell id="112" value="flot_in, flot_out : Flow" style="text;strokeColor=none;fillColor=none;align=left;verticalAlign=middle;spacingLeft=4;spacingRight=4;overflow=hidden;points=[[0,0.5],[1,0.5]];portConstraint=eastwest;rotatable=0;whiteSpace=wrap;html=1;" parent="107" vertex="1">
                    <mxGeometry y="150" width="220" height="30" as="geometry"/>
                </mxCell>
                <mxCell id="114" value="flot_out.f = alpha x p" style="text;strokeColor=none;fillColor=none;align=left;verticalAlign=middle;spacingLeft=4;spacingRight=4;overflow=hidden;points=[[0,0.5],[1,0.5]];portConstraint=eastwest;rotatable=0;whiteSpace=wrap;html=1;" parent="107" vertex="1">
                    <mxGeometry y="180" width="220" height="30" as="geometry"/>
                </mxCell>
                <mxCell id="113" value="flot_in.f = -p" style="text;strokeColor=none;fillColor=none;align=left;verticalAlign=middle;spacingLeft=4;spacingRight=4;overflow=hidden;points=[[0,0.5],[1,0.5]];portConstraint=eastwest;rotatable=0;whiteSpace=wrap;html=1;" parent="107" vertex="1">
                    <mxGeometry y="210" width="220" height="30" as="geometry"/>
                </mxCell>
                <mxCell id="115" value="Demand : Model" style="swimlane;fontStyle=0;childLayout=stackLayout;horizontal=1;startSize=30;horizontalStack=0;resizeParent=1;resizeParentMax=0;resizeLast=0;collapsible=1;marginBottom=0;whiteSpace=wrap;html=1;fillColor=#CCFFCC;fontColor=#000000;" parent="0" vertex="1">
                    <mxGeometry x="490" y="280" width="200" height="120" as="geometry"/>
                </mxCell>
                <mxCell id="116" value="d : Parameter" style="text;strokeColor=none;fillColor=none;align=left;verticalAlign=middle;spacingLeft=4;spacingRight=4;overflow=hidden;points=[[0,0.5],[1,0.5]];portConstraint=eastwest;rotatable=0;whiteSpace=wrap;html=1;" parent="115" vertex="1">
                    <mxGeometry y="30" width="200" height="30" as="geometry"/>
                </mxCell>
                <mxCell id="117" value="flow_d : Flow" style="text;strokeColor=none;fillColor=none;align=left;verticalAlign=middle;spacingLeft=4;spacingRight=4;overflow=hidden;points=[[0,0.5],[1,0.5]];portConstraint=eastwest;rotatable=0;whiteSpace=wrap;html=1;" parent="115" vertex="1">
                    <mxGeometry y="60" width="200" height="30" as="geometry"/>
                </mxCell>
                <mxCell id="118" value="flow_d.f = -d" style="text;strokeColor=none;fillColor=none;align=left;verticalAlign=middle;spacingLeft=4;spacingRight=4;overflow=hidden;points=[[0,0.5],[1,0.5]];portConstraint=eastwest;rotatable=0;whiteSpace=wrap;html=1;" parent="115" vertex="1">
                    <mxGeometry y="90" width="200" height="30" as="geometry"/>
                </mxCell>
                <mxCell id="1" value="" style="group" parent="WIyWlLk6GJQsqaUBKTNV-1" vertex="1" connectable="0">
                    <mxGeometry x="109" y="40" width="680" height="320" as="geometry"/>
                </mxCell>
                <mxCell id="hW5n2ouBTmK9XzmkuQqM-36" value="File &quot;network.txt&quot;" style="swimlane;fontStyle=0;childLayout=stackLayout;horizontal=1;startSize=30;horizontalStack=0;resizeParent=1;resizeParentMax=0;resizeLast=0;collapsible=1;marginBottom=0;whiteSpace=wrap;html=1;fillColor=#CCCCFF;" parent="1" vertex="1">
                    <mxGeometry x="220" y="60" width="310" height="330" as="geometry"/>
                </mxCell>
                <mxCell id="hW5n2ouBTmK9XzmkuQqM-39" value="g, e : Node" style="text;strokeColor=none;fillColor=none;align=left;verticalAlign=middle;spacingLeft=4;spacingRight=4;overflow=hidden;points=[[0,0.5],[1,0.5]];portConstraint=eastwest;rotatable=0;whiteSpace=wrap;html=1;" parent="hW5n2ouBTmK9XzmkuQqM-36" vertex="1">
                    <mxGeometry y="30" width="310" height="30" as="geometry"/>
                </mxCell>
                <mxCell id="hW5n2ouBTmK9XzmkuQqM-44" value="demand_e, demand_g : Demand" style="text;strokeColor=none;fillColor=none;align=left;verticalAlign=middle;spacingLeft=4;spacingRight=4;overflow=hidden;points=[[0,0.5],[1,0.5]];portConstraint=eastwest;rotatable=0;whiteSpace=wrap;html=1;" parent="hW5n2ouBTmK9XzmkuQqM-36" vertex="1">
                    <mxGeometry y="60" width="310" height="30" as="geometry"/>
                </mxCell>
                <mxCell id="hW5n2ouBTmK9XzmkuQqM-41" value="prod_e, prod_g : Production" style="text;strokeColor=none;fillColor=none;align=left;verticalAlign=middle;spacingLeft=4;spacingRight=4;overflow=hidden;points=[[0,0.5],[1,0.5]];portConstraint=eastwest;rotatable=0;whiteSpace=wrap;html=1;" parent="hW5n2ouBTmK9XzmkuQqM-36" vertex="1">
                    <mxGeometry y="90" width="310" height="30" as="geometry"/>
                </mxCell>
                <mxCell id="hW5n2ouBTmK9XzmkuQqM-37" value="electrolyser : Converter" style="text;strokeColor=none;fillColor=none;align=left;verticalAlign=middle;spacingLeft=4;spacingRight=4;overflow=hidden;points=[[0,0.5],[1,0.5]];portConstraint=eastwest;rotatable=0;whiteSpace=wrap;html=1;" parent="hW5n2ouBTmK9XzmkuQqM-36" vertex="1">
                    <mxGeometry y="120" width="310" height="30" as="geometry"/>
                </mxCell>
                <mxCell id="hW5n2ouBTmK9XzmkuQqM-47" value="e.flow_n prod_e.flow_p" style="text;strokeColor=none;fillColor=none;align=left;verticalAlign=middle;spacingLeft=4;spacingRight=4;overflow=hidden;points=[[0,0.5],[1,0.5]];portConstraint=eastwest;rotatable=0;whiteSpace=wrap;html=1;" parent="hW5n2ouBTmK9XzmkuQqM-36" vertex="1">
                    <mxGeometry y="150" width="310" height="30" as="geometry"/>
                </mxCell>
                <mxCell id="hW5n2ouBTmK9XzmkuQqM-48" value="e.flow_n demand_e.flow_d" style="text;strokeColor=none;fillColor=none;align=left;verticalAlign=middle;spacingLeft=4;spacingRight=4;overflow=hidden;points=[[0,0.5],[1,0.5]];portConstraint=eastwest;rotatable=0;whiteSpace=wrap;html=1;" parent="hW5n2ouBTmK9XzmkuQqM-36" vertex="1">
                    <mxGeometry y="180" width="310" height="30" as="geometry"/>
                </mxCell>
                <mxCell id="hW5n2ouBTmK9XzmkuQqM-49" value="g.flow_n prod_g.flow_p" style="text;strokeColor=none;fillColor=none;align=left;verticalAlign=middle;spacingLeft=4;spacingRight=4;overflow=hidden;points=[[0,0.5],[1,0.5]];portConstraint=eastwest;rotatable=0;whiteSpace=wrap;html=1;" parent="hW5n2ouBTmK9XzmkuQqM-36" vertex="1">
                    <mxGeometry y="210" width="310" height="30" as="geometry"/>
                </mxCell>
                <mxCell id="hW5n2ouBTmK9XzmkuQqM-50" value="g.flow_n demand_g.flow_d" style="text;strokeColor=none;fillColor=none;align=left;verticalAlign=middle;spacingLeft=4;spacingRight=4;overflow=hidden;points=[[0,0.5],[1,0.5]];portConstraint=eastwest;rotatable=0;whiteSpace=wrap;html=1;" parent="hW5n2ouBTmK9XzmkuQqM-36" vertex="1">
                    <mxGeometry y="240" width="310" height="30" as="geometry"/>
                </mxCell>
                <mxCell id="hW5n2ouBTmK9XzmkuQqM-51" value="e.flow_n electrolyser.flow_in" style="text;strokeColor=none;fillColor=none;align=left;verticalAlign=middle;spacingLeft=4;spacingRight=4;overflow=hidden;points=[[0,0.5],[1,0.5]];portConstraint=eastwest;rotatable=0;whiteSpace=wrap;html=1;" parent="hW5n2ouBTmK9XzmkuQqM-36" vertex="1">
                    <mxGeometry y="270" width="310" height="30" as="geometry"/>
                </mxCell>
                <mxCell id="hW5n2ouBTmK9XzmkuQqM-46" value="g.flow_n electrolyser.flow_out" style="text;strokeColor=none;fillColor=none;align=left;verticalAlign=middle;spacingLeft=4;spacingRight=4;overflow=hidden;points=[[0,0.5],[1,0.5]];portConstraint=eastwest;rotatable=0;whiteSpace=wrap;html=1;" parent="hW5n2ouBTmK9XzmkuQqM-36" vertex="1">
                    <mxGeometry y="300" width="310" height="30" as="geometry"/>
                </mxCell>
                <mxCell id="hW5n2ouBTmK9XzmkuQqM-80" value="&lt;h1&gt;Study data&lt;br&gt;&lt;/h1&gt;" style="text;html=1;strokeColor=none;fillColor=none;spacing=5;spacingTop=-20;whiteSpace=wrap;overflow=hidden;rounded=0;align=center;" parent="1" vertex="1">
                    <mxGeometry x="250" width="250" height="40" as="geometry"/>
                </mxCell>
                <mxCell id="11" value="&lt;font style=&quot;&quot;&gt;&lt;b style=&quot;&quot;&gt;&lt;font style=&quot;font-size: 24px;&quot;&gt;Data visualization&lt;/font&gt;&lt;br&gt;&lt;/b&gt;&lt;/font&gt;" style="text;html=1;strokeColor=none;fillColor=none;align=center;verticalAlign=middle;whiteSpace=wrap;rounded=0;" parent="WIyWlLk6GJQsqaUBKTNV-1" vertex="1">
                    <mxGeometry x="1030" width="430" height="120" as="geometry"/>
                </mxCell>
                <mxCell id="49" value="" style="group" parent="WIyWlLk6GJQsqaUBKTNV-1" vertex="1" connectable="0">
                    <mxGeometry x="880" y="170" width="790" height="260.5" as="geometry"/>
                </mxCell>
                <mxCell id="2" value="" style="group" parent="49" vertex="1" connectable="0">
                    <mxGeometry x="120" y="30" width="80" height="110" as="geometry"/>
                </mxCell>
                <mxCell id="3" value="g" style="ellipse;whiteSpace=wrap;html=1;aspect=fixed;fillColor=#e1d5e7;strokeColor=#9673a6;" parent="2" vertex="1">
                    <mxGeometry width="80" height="80" as="geometry"/>
                </mxCell>
                <mxCell id="4" value="flow_n" style="rounded=0;whiteSpace=wrap;html=1;fillColor=#e1d5e7;strokeColor=#9673a6;" parent="2" vertex="1">
                    <mxGeometry x="15" y="80" width="50" height="30" as="geometry"/>
                </mxCell>
                <mxCell id="8" value="" style="group" parent="49" vertex="1" connectable="0">
                    <mxGeometry x="590" y="30" width="80" height="110" as="geometry"/>
                </mxCell>
                <mxCell id="9" value="e" style="ellipse;whiteSpace=wrap;html=1;aspect=fixed;fillColor=#dae8fc;strokeColor=#6c8ebf;" parent="8" vertex="1">
                    <mxGeometry width="80" height="80" as="geometry"/>
                </mxCell>
                <mxCell id="10" value="flow_n" style="rounded=0;whiteSpace=wrap;html=1;fillColor=#dae8fc;strokeColor=#6c8ebf;" parent="8" vertex="1">
                    <mxGeometry x="15" y="80" width="50" height="30" as="geometry"/>
                </mxCell>
                <mxCell id="17" value="" style="group" parent="49" vertex="1" connectable="0">
                    <mxGeometry x="330" y="110" width="120" height="110.5" as="geometry"/>
                </mxCell>
                <mxCell id="18" value="electrolyser" style="ellipse;whiteSpace=wrap;html=1;" parent="17" vertex="1">
                    <mxGeometry y="30.5" width="120" height="80" as="geometry"/>
                </mxCell>
                <mxCell id="19" value="" style="group;fillColor=#f8cecc;strokeColor=#b85450;" parent="17" vertex="1" connectable="0">
                    <mxGeometry x="10" width="100" height="30" as="geometry"/>
                </mxCell>
                <mxCell id="20" value="flow_out" style="rounded=0;whiteSpace=wrap;html=1;fillColor=#e1d5e7;strokeColor=#9673a6;" parent="19" vertex="1">
                    <mxGeometry width="50" height="30" as="geometry"/>
                </mxCell>
                <mxCell id="21" value="flow_in" style="rounded=0;whiteSpace=wrap;html=1;fillColor=#dae8fc;strokeColor=#6c8ebf;" parent="19" vertex="1">
                    <mxGeometry x="50" width="50" height="30" as="geometry"/>
                </mxCell>
                <mxCell id="33" value="" style="group" parent="49" vertex="1" connectable="0">
                    <mxGeometry x="710" y="110" width="80" height="60" as="geometry"/>
                </mxCell>
                <mxCell id="30" value="prod_e" style="rounded=1;whiteSpace=wrap;html=1;container=0;" parent="33" vertex="1">
                    <mxGeometry y="30" width="80" height="30" as="geometry"/>
                </mxCell>
                <mxCell id="31" value="flow_p" style="rounded=0;whiteSpace=wrap;html=1;fillColor=#dae8fc;strokeColor=#6c8ebf;container=0;" parent="33" vertex="1">
                    <mxGeometry x="15" width="50" height="30" as="geometry"/>
                </mxCell>
                <mxCell id="34" value="" style="group" parent="49" vertex="1" connectable="0">
                    <mxGeometry x="590" y="190" width="80" height="60" as="geometry"/>
                </mxCell>
                <mxCell id="35" value="demand_e" style="rounded=1;whiteSpace=wrap;html=1;container=0;" parent="34" vertex="1">
                    <mxGeometry y="30" width="80" height="30" as="geometry"/>
                </mxCell>
                <mxCell id="36" value="flow_d" style="rounded=0;whiteSpace=wrap;html=1;fillColor=#dae8fc;strokeColor=#6c8ebf;container=0;" parent="34" vertex="1">
                    <mxGeometry x="15" width="50" height="30" as="geometry"/>
                </mxCell>
                <mxCell id="37" value="" style="group" parent="49" vertex="1" connectable="0">
                    <mxGeometry x="120" y="190" width="80" height="60" as="geometry"/>
                </mxCell>
                <mxCell id="38" value="demand_g" style="rounded=1;whiteSpace=wrap;html=1;container=0;" parent="37" vertex="1">
                    <mxGeometry y="30" width="80" height="30" as="geometry"/>
                </mxCell>
                <mxCell id="39" value="flow_d" style="rounded=0;whiteSpace=wrap;html=1;fillColor=#e1d5e7;strokeColor=#9673a6;container=0;" parent="37" vertex="1">
                    <mxGeometry x="15" width="50" height="30" as="geometry"/>
                </mxCell>
                <mxCell id="40" value="" style="group" parent="49" vertex="1" connectable="0">
                    <mxGeometry y="110" width="80" height="60" as="geometry"/>
                </mxCell>
                <mxCell id="41" value="prod_g" style="rounded=1;whiteSpace=wrap;html=1;container=0;" parent="40" vertex="1">
                    <mxGeometry y="30" width="80" height="30" as="geometry"/>
                </mxCell>
                <mxCell id="42" value="flow_p" style="rounded=0;whiteSpace=wrap;html=1;fillColor=#e1d5e7;strokeColor=#9673a6;container=0;" parent="40" vertex="1">
                    <mxGeometry x="15" width="50" height="30" as="geometry"/>
                </mxCell>
                <mxCell id="119" style="edgeStyle=none;html=1;entryX=0;entryY=0.5;entryDx=0;entryDy=0;" parent="49" source="42" target="4" edge="1">
                    <mxGeometry relative="1" as="geometry"/>
                </mxCell>
                <mxCell id="120" style="edgeStyle=none;html=1;entryX=0.5;entryY=1;entryDx=0;entryDy=0;" parent="49" source="39" target="4" edge="1">
                    <mxGeometry relative="1" as="geometry"/>
                </mxCell>
                <mxCell id="122" style="edgeStyle=none;html=1;entryX=1;entryY=0.5;entryDx=0;entryDy=0;" parent="49" source="20" target="4" edge="1">
                    <mxGeometry relative="1" as="geometry"/>
                </mxCell>
                <mxCell id="123" style="edgeStyle=none;html=1;entryX=0;entryY=0.5;entryDx=0;entryDy=0;" parent="49" source="21" target="10" edge="1">
                    <mxGeometry relative="1" as="geometry"/>
                </mxCell>
                <mxCell id="127" style="edgeStyle=none;html=1;entryX=1;entryY=0.5;entryDx=0;entryDy=0;" parent="49" source="31" target="10" edge="1">
                    <mxGeometry relative="1" as="geometry"/>
                </mxCell>
                <mxCell id="128" style="edgeStyle=none;html=1;" parent="49" source="36" target="10" edge="1">
                    <mxGeometry relative="1" as="geometry"/>
                </mxCell>
                <mxCell id="98" value="Production : Model" style="swimlane;fontStyle=0;childLayout=stackLayout;horizontal=1;startSize=30;horizontalStack=0;resizeParent=1;resizeParentMax=0;resizeLast=0;collapsible=1;marginBottom=0;whiteSpace=wrap;html=1;fillColor=#CCFFCC;fontColor=#000000;" parent="WIyWlLk6GJQsqaUBKTNV-1" vertex="1">
                    <mxGeometry x="1130" y="-380" width="230" height="270" as="geometry"/>
                </mxCell>
                <mxCell id="99" value="p : Variable" style="text;strokeColor=none;fillColor=none;align=left;verticalAlign=middle;spacingLeft=4;spacingRight=4;overflow=hidden;points=[[0,0.5],[1,0.5]];portConstraint=eastwest;rotatable=0;whiteSpace=wrap;html=1;" parent="98" vertex="1">
                    <mxGeometry y="30" width="230" height="30" as="geometry"/>
                </mxCell>
                <mxCell id="100" value="p_min, p_max : Parameter" style="text;strokeColor=none;fillColor=none;align=left;verticalAlign=middle;spacingLeft=4;spacingRight=4;overflow=hidden;points=[[0,0.5],[1,0.5]];portConstraint=eastwest;rotatable=0;whiteSpace=wrap;html=1;" parent="98" vertex="1">
                    <mxGeometry y="60" width="230" height="30" as="geometry"/>
                </mxCell>
                <mxCell id="101" value="taux_emission : Parameter" style="text;strokeColor=none;fillColor=none;align=left;verticalAlign=middle;spacingLeft=4;spacingRight=4;overflow=hidden;points=[[0,0.5],[1,0.5]];portConstraint=eastwest;rotatable=0;whiteSpace=wrap;html=1;" parent="98" vertex="1">
                    <mxGeometry y="90" width="230" height="30" as="geometry"/>
                </mxCell>
                <mxCell id="102" value="p_min &amp;lt;= p &amp;lt;= p_max" style="text;strokeColor=none;fillColor=none;align=left;verticalAlign=middle;spacingLeft=4;spacingRight=4;overflow=hidden;points=[[0,0.5],[1,0.5]];portConstraint=eastwest;rotatable=0;whiteSpace=wrap;html=1;" parent="98" vertex="1">
                    <mxGeometry y="120" width="230" height="30" as="geometry"/>
                </mxCell>
                <mxCell id="103" value="flow_p : Flow" style="text;strokeColor=none;fillColor=none;align=left;verticalAlign=middle;spacingLeft=4;spacingRight=4;overflow=hidden;points=[[0,0.5],[1,0.5]];portConstraint=eastwest;rotatable=0;whiteSpace=wrap;html=1;" parent="98" vertex="1">
                    <mxGeometry y="150" width="230" height="30" as="geometry"/>
                </mxCell>
                <mxCell id="104" value="my_emission : Emission" style="text;strokeColor=none;fillColor=none;align=left;verticalAlign=middle;spacingLeft=4;spacingRight=4;overflow=hidden;points=[[0,0.5],[1,0.5]];portConstraint=eastwest;rotatable=0;whiteSpace=wrap;html=1;" parent="98" vertex="1">
                    <mxGeometry y="180" width="230" height="30" as="geometry"/>
                </mxCell>
                <mxCell id="105" value="flow_p.f = p" style="text;strokeColor=none;fillColor=none;align=left;verticalAlign=middle;spacingLeft=4;spacingRight=4;overflow=hidden;points=[[0,0.5],[1,0.5]];portConstraint=eastwest;rotatable=0;whiteSpace=wrap;html=1;" parent="98" vertex="1">
                    <mxGeometry y="210" width="230" height="30" as="geometry"/>
                </mxCell>
                <mxCell id="106" value="my_emission.q = taux_emission * p" style="text;strokeColor=none;fillColor=none;align=left;verticalAlign=middle;spacingLeft=4;spacingRight=4;overflow=hidden;points=[[0,0.5],[1,0.5]];portConstraint=eastwest;rotatable=0;whiteSpace=wrap;html=1;" parent="98" vertex="1">
                    <mxGeometry y="240" width="230" height="30" as="geometry"/>
                </mxCell>
                <mxCell id="129" value="&lt;i&gt;We model an electrolyzer that should respect a minimum production level, part of that minimum production could be&amp;nbsp; curtailed at a defined cost.&lt;/i&gt;" style="text;html=1;strokeColor=#FFCCCC;fillColor=none;align=left;verticalAlign=middle;whiteSpace=wrap;rounded=0;dashed=1;dashPattern=1 1;strokeWidth=2;" vertex="1" parent="WIyWlLk6GJQsqaUBKTNV-1">
                    <mxGeometry x="130" y="-530" width="619" height="60" as="geometry"/>
                </mxCell>
            </root>
        </mxGraphModel>
    </diagram>
</mxfile>